<?xml version="1.0" encoding="UTF-8"?>
<!DOCTYPE svg PUBLIC "-//W3C//DTD SVG 1.1//EN" "http://www.w3.org/Graphics/SVG/1.1/DTD/svg11.dtd">
<svg xmlns="http://www.w3.org/2000/svg" version="1.1" width="640px" height="640px" style="shape-rendering:geometricPrecision; text-rendering:geometricPrecision; image-rendering:optimizeQuality; fill-rule:evenodd; clip-rule:evenodd" xmlns:xlink="http://www.w3.org/1999/xlink">
<g><path style="opacity:1" fill="#8cfef9" d="M -0.5,-0.5 C 212.833,-0.5 426.167,-0.5 639.5,-0.5C 639.5,212.833 639.5,426.167 639.5,639.5C 426.167,639.5 212.833,639.5 -0.5,639.5C -0.5,426.167 -0.5,212.833 -0.5,-0.5 Z"/></g>
<g><path style="opacity:1" fill="#94fcf7" d="M 415.5,217.5 C 351.5,218.833 287.5,218.833 223.5,217.5C 255.16,216.167 287.16,215.5 319.5,215.5C 351.84,215.5 383.84,216.167 415.5,217.5 Z"/></g>
<g><path style="opacity:1" fill="#81e8f4" d="M 223.5,217.5 C 287.5,218.833 351.5,218.833 415.5,217.5C 415.5,218.5 415.5,219.5 415.5,220.5C 351.5,220.5 287.5,220.5 223.5,220.5C 223.5,219.5 223.5,218.5 223.5,217.5 Z"/></g>
<g><path style="opacity:1" fill="#78dbf0" d="M 223.5,220.5 C 287.5,220.5 351.5,220.5 415.5,220.5C 415.5,226.833 415.5,233.167 415.5,239.5C 414.512,234.36 414.179,229.026 414.5,223.5C 412.167,223.5 409.833,223.5 407.5,223.5C 378.508,222.167 349.174,221.5 319.5,221.5C 289.826,221.5 260.492,222.167 231.5,223.5C 228.612,222.99 226.279,223.656 224.5,225.5C 224.819,230.363 224.486,235.03 223.5,239.5C 223.5,233.167 223.5,226.833 223.5,220.5 Z"/></g>
<g><path style="opacity:1" fill="#6fd1f3" d="M 407.5,223.5 C 348.833,223.5 290.167,223.5 231.5,223.5C 260.492,222.167 289.826,221.5 319.5,221.5C 349.174,221.5 378.508,222.167 407.5,223.5 Z"/></g>
<g><path style="opacity:1" fill="#83b5f5" d="M 231.5,223.5 C 290.167,223.5 348.833,223.5 407.5,223.5C 348.336,224.499 289.002,224.832 229.5,224.5C 228.5,224.5 227.5,224.5 226.5,224.5C 225.833,224.833 225.167,225.167 224.5,225.5C 226.279,223.656 228.612,222.99 231.5,223.5 Z"/></g>
<g><path style="opacity:1" fill="#3b65b9" d="M 407.5,223.5 C 409.833,223.5 412.167,223.5 414.5,223.5C 414.179,229.026 414.512,234.36 415.5,239.5C 415.784,241.415 415.451,243.081 414.5,244.5C 413.167,244.5 411.833,244.5 410.5,244.5C 410.5,244.167 410.5,243.833 410.5,243.5C 411.5,243.5 412.5,243.5 413.5,243.5C 413.5,242.167 413.5,240.833 413.5,239.5C 414.08,235.351 413.414,231.684 411.5,228.5C 411.5,227.5 411.5,226.5 411.5,225.5C 350.664,225.832 289.998,225.499 229.5,224.5C 289.002,224.832 348.336,224.499 407.5,223.5 Z"/></g>
<g><path style="opacity:1" fill="#2d4bbd" d="M 226.5,224.5 C 227.5,224.5 228.5,224.5 229.5,224.5C 289.998,225.499 350.664,225.832 411.5,225.5C 411.5,226.5 411.5,227.5 411.5,228.5C 380.919,227.197 350.252,226.531 319.5,226.5C 288.429,226.538 257.429,227.205 226.5,228.5C 226.737,229.791 226.404,230.791 225.5,231.5C 225.448,229.097 225.781,226.764 226.5,224.5 Z"/></g>
<g><path style="opacity:1" fill="#3b42d3" d="M 411.5,228.5 C 413.414,231.684 414.08,235.351 413.5,239.5C 412.5,239.5 411.5,239.5 410.5,239.5C 410.5,236.833 410.5,234.167 410.5,231.5C 350.943,229.524 291.277,228.857 231.5,229.5C 231.5,233.167 231.5,236.833 231.5,240.5C 229.435,240.483 227.435,240.15 225.5,239.5C 225.5,236.833 225.5,234.167 225.5,231.5C 226.404,230.791 226.737,229.791 226.5,228.5C 257.429,227.205 288.429,226.538 319.5,226.5C 350.252,226.531 380.919,227.197 411.5,228.5 Z"/></g>
<g><path style="opacity:1" fill="#4950c6" d="M 228.5,231.5 C 229.748,232.334 230.415,233.667 230.5,235.5C 230.167,236.833 229.833,238.167 229.5,239.5C 228.52,236.914 228.187,234.247 228.5,231.5 Z"/></g>
<g><path style="opacity:1" fill="#3e47ca" d="M 413.5,239.5 C 413.5,240.833 413.5,242.167 413.5,243.5C 412.5,243.5 411.5,243.5 410.5,243.5C 386.831,243.333 363.164,243.5 339.5,244C 338.663,245.011 338.33,246.178 338.5,247.5C 337.167,247.5 335.833,247.5 334.5,247.5C 333.833,327.5 333.167,407.5 332.5,487.5C 332.833,409.998 332.499,332.665 331.5,255.5C 330.833,244.833 330.167,244.833 329.5,255.5C 328.667,332.666 328.167,409.999 328,487.5C 322.333,488.833 316.667,488.833 311,487.5C 310.833,409.999 310.333,332.666 309.5,255.5C 308.833,244.833 308.167,244.833 307.5,255.5C 306.501,332.665 306.167,409.998 306.5,487.5C 305.833,407.5 305.167,327.5 304.5,247.5C 303.5,247.5 302.5,247.5 301.5,247.5C 301.5,246.167 301.5,244.833 301.5,243.5C 276.167,243.5 250.833,243.5 225.5,243.5C 225.5,242.167 225.5,240.833 225.5,239.5C 227.435,240.15 229.435,240.483 231.5,240.5C 231.5,236.833 231.5,233.167 231.5,229.5C 291.277,228.857 350.943,229.524 410.5,231.5C 410.5,234.167 410.5,236.833 410.5,239.5C 411.5,239.5 412.5,239.5 413.5,239.5 Z"/></g>
<g><path style="opacity:1" fill="#4471d1" d="M 226.5,224.5 C 225.781,226.764 225.448,229.097 225.5,231.5C 225.5,234.167 225.5,236.833 225.5,239.5C 225.5,240.833 225.5,242.167 225.5,243.5C 250.833,243.5 276.167,243.5 301.5,243.5C 301.5,244.833 301.5,246.167 301.5,247.5C 300.833,247.5 300.167,247.5 299.5,247.5C 299.5,246.5 299.5,245.5 299.5,244.5C 274.5,244.5 249.5,244.5 224.5,244.5C 223.549,243.081 223.216,241.415 223.5,239.5C 224.486,235.03 224.819,230.363 224.5,225.5C 225.167,225.167 225.833,224.833 226.5,224.5 Z"/></g>
<g><path style="opacity:1" fill="#4170d3" d="M 410.5,243.5 C 410.5,243.833 410.5,244.167 410.5,244.5C 387.164,244.333 363.831,244.5 340.5,245C 339.748,245.671 339.414,246.504 339.5,247.5C 339.167,247.5 338.833,247.5 338.5,247.5C 338.33,246.178 338.663,245.011 339.5,244C 363.164,243.5 386.831,243.333 410.5,243.5 Z"/></g>
<g><path style="opacity:1" fill="#6eb5f1" d="M 224.5,244.5 C 249.5,244.5 274.5,244.5 299.5,244.5C 299.5,245.5 299.5,246.5 299.5,247.5C 298.833,247.167 298.167,246.833 297.5,246.5C 273.167,245.833 248.833,245.167 224.5,244.5 Z"/></g>
<g><path style="opacity:1" fill="#6eb5f1" d="M 410.5,244.5 C 411.833,244.5 413.167,244.5 414.5,244.5C 390.167,245.167 365.833,245.833 341.5,246.5C 340.833,246.833 340.167,247.167 339.5,247.5C 339.414,246.504 339.748,245.671 340.5,245C 363.831,244.5 387.164,244.333 410.5,244.5 Z"/></g>
<g><path style="opacity:1" fill="#8eeefc" d="M 297.5,246.5 C 298.167,246.833 298.833,247.167 299.5,247.5C 299.5,248.5 299.5,249.5 299.5,250.5C 301.099,250.232 302.432,250.566 303.5,251.5C 300.05,250.756 298.384,252.09 298.5,255.5C 297.5,255.5 296.5,255.5 295.5,255.5C 295.207,252.246 295.874,249.246 297.5,246.5 Z"/></g>
<g><path style="opacity:1" fill="#8eedfc" d="M 341.5,246.5 C 343.126,249.246 343.793,252.246 343.5,255.5C 342.5,255.5 341.5,255.5 340.5,255.5C 340.616,252.09 338.95,250.756 335.5,251.5C 336.263,250.732 337.263,250.232 338.5,250C 339.252,249.329 339.586,248.496 339.5,247.5C 340.167,247.167 340.833,246.833 341.5,246.5 Z"/></g>
<g><path style="opacity:1" fill="#7db2ee" d="M 299.5,247.5 C 300.167,247.5 300.833,247.5 301.5,247.5C 302.5,247.5 303.5,247.5 304.5,247.5C 304.5,250.167 304.5,252.833 304.5,255.5C 304.167,255.5 303.833,255.5 303.5,255.5C 303.5,254.167 303.5,252.833 303.5,251.5C 302.432,250.566 301.099,250.232 299.5,250.5C 299.5,249.5 299.5,248.5 299.5,247.5 Z"/></g>
<g><path style="opacity:1" fill="#7cb0ec" d="M 334.5,247.5 C 335.833,247.5 337.167,247.5 338.5,247.5C 338.833,247.5 339.167,247.5 339.5,247.5C 339.586,248.496 339.252,249.329 338.5,250C 337.263,250.232 336.263,250.732 335.5,251.5C 335.5,252.833 335.5,254.167 335.5,255.5C 335.167,255.5 334.833,255.5 334.5,255.5C 334.5,252.833 334.5,250.167 334.5,247.5 Z"/></g>
<g><path style="opacity:1" fill="#90e2fa" d="M 303.5,255.5 C 303.833,255.5 304.167,255.5 304.5,255.5C 304.172,335.208 304.506,414.874 305.5,494.5C 304.883,494.389 304.383,494.056 304,493.5C 303.5,414.167 303.333,334.834 303.5,255.5 Z"/></g>
<g><path style="opacity:1" fill="#4458c3" d="M 304.5,247.5 C 305.167,327.5 305.833,407.5 306.5,487.5C 306.5,489.167 306.5,490.833 306.5,492.5C 307.5,492.5 308.5,492.5 309.5,492.5C 309.5,491.5 309.5,490.5 309.5,489.5C 308.171,411.373 308.171,333.373 309.5,255.5C 310.333,332.666 310.833,409.999 311,487.5C 316.667,488.833 322.333,488.833 328,487.5C 328.167,409.999 328.667,332.666 329.5,255.5C 330.829,333.373 330.829,411.373 329.5,489.5C 329.5,490.5 329.5,491.5 329.5,492.5C 330.5,492.5 331.5,492.5 332.5,492.5C 332.5,490.833 332.5,489.167 332.5,487.5C 333.167,407.5 333.833,327.5 334.5,247.5C 334.5,250.167 334.5,252.833 334.5,255.5C 334.667,334.501 334.5,413.501 334,492.5C 333.5,493 333,493.5 332.5,494C 323.506,494.5 314.506,494.666 305.5,494.5C 304.506,414.874 304.172,335.208 304.5,255.5C 304.5,252.833 304.5,250.167 304.5,247.5 Z"/></g>
<g><path style="opacity:1" fill="#4b41cc" d="M 309.5,255.5 C 308.171,333.373 308.171,411.373 309.5,489.5C 307.503,411.84 306.836,333.84 307.5,255.5C 308.167,244.833 308.833,244.833 309.5,255.5 Z"/></g>
<g><path style="opacity:1" fill="#504aea" d="M 307.5,255.5 C 306.836,333.84 307.503,411.84 309.5,489.5C 309.5,490.5 309.5,491.5 309.5,492.5C 308.5,492.5 307.5,492.5 306.5,492.5C 306.5,490.833 306.5,489.167 306.5,487.5C 306.167,409.998 306.501,332.665 307.5,255.5 Z"/></g>
<g><path style="opacity:1" fill="#4b41cc" d="M 331.5,255.5 C 332.164,333.84 331.497,411.84 329.5,489.5C 330.829,411.373 330.829,333.373 329.5,255.5C 330.167,244.833 330.833,244.833 331.5,255.5 Z"/></g>
<g><path style="opacity:1" fill="#504aea" d="M 331.5,255.5 C 332.499,332.665 332.833,409.998 332.5,487.5C 332.5,489.167 332.5,490.833 332.5,492.5C 331.5,492.5 330.5,492.5 329.5,492.5C 329.5,491.5 329.5,490.5 329.5,489.5C 331.497,411.84 332.164,333.84 331.5,255.5 Z"/></g>
<g><path style="opacity:1" fill="#8fe0fa" d="M 334.5,255.5 C 334.833,255.5 335.167,255.5 335.5,255.5C 335.667,334.834 335.5,414.167 335,493.5C 334.5,494 334,494.5 333.5,495C 323.991,495.824 314.657,495.658 305.5,494.5C 314.506,494.666 323.506,494.5 332.5,494C 333,493.5 333.5,493 334,492.5C 334.5,413.501 334.667,334.501 334.5,255.5 Z"/></g>
<g><path style="opacity:1" fill="#3841d6" d="M 311.5,491.5 C 316.875,491.172 322.208,491.505 327.5,492.5C 324.833,492.833 322.167,493.167 319.5,493.5C 316.41,493.478 313.743,492.812 311.5,491.5 Z"/></g>
</svg>
