<?xml version="1.0" encoding="UTF-8"?>
<!DOCTYPE svg PUBLIC "-//W3C//DTD SVG 1.1//EN" "http://www.w3.org/Graphics/SVG/1.1/DTD/svg11.dtd">
<svg xmlns="http://www.w3.org/2000/svg" version="1.1" width="1200px" height="630px" style="shape-rendering:geometricPrecision; text-rendering:geometricPrecision; image-rendering:optimizeQuality; fill-rule:evenodd; clip-rule:evenodd" xmlns:xlink="http://www.w3.org/1999/xlink">
<g><path style="opacity:1" fill="#fefefe" d="M -0.5,-0.5 C 399.5,-0.5 799.5,-0.5 1199.5,-0.5C 1199.5,209.5 1199.5,419.5 1199.5,629.5C 799.5,629.5 399.5,629.5 -0.5,629.5C -0.5,419.5 -0.5,209.5 -0.5,-0.5 Z"/></g>
<g><path style="opacity:1" fill="#8cfdf8" d="M 425.5,132.5 C 425.5,253.5 425.5,374.5 425.5,495.5C 304.5,495.5 183.5,495.5 62.5,495.5C 62.5,374.5 62.5,253.5 62.5,132.5C 183.5,132.5 304.5,132.5 425.5,132.5 Z"/></g>
<g><path style="opacity:1" fill="#060606" d="M 1107.5,222.5 C 1113.51,222.334 1119.51,222.501 1125.5,223C 1133.17,225.842 1136.01,231.342 1134,239.5C 1130.81,243.651 1127.97,243.485 1125.5,239C 1122.62,238.562 1119.96,237.562 1117.5,236C 1096.14,238.276 1080.64,249.109 1071,268.5C 1060.42,288.965 1061.09,308.965 1073,328.5C 1079.95,337.728 1089.12,341.561 1100.5,340C 1111.41,337.732 1122.24,335.232 1133,332.5C 1140.97,333.487 1142.47,337.154 1137.5,343.5C 1127.57,348.467 1117.24,352.301 1106.5,355C 1099.26,355.985 1092.26,355.318 1085.5,353C 1061.65,337.474 1051.15,315.64 1054,287.5C 1057.36,274.125 1062.36,261.458 1069,249.5C 1079.89,237.394 1092.73,228.394 1107.5,222.5 Z"/></g>
<g><path style="opacity:1" fill="#050505" d="M 476.5,264.5 C 477.461,262.735 477.795,260.735 477.5,258.5C 476.209,258.263 475.209,258.596 474.5,259.5C 467.282,261.348 459.949,261.848 452.5,261C 446.126,256.307 439.459,251.973 432.5,248C 431.415,245.828 430.081,243.828 428.5,242C 436.818,242.765 445.151,242.432 453.5,241C 467.024,236.535 480.691,232.535 494.5,229C 497.656,228.063 500.489,226.563 503,224.5C 507.019,226.032 511.186,227.199 515.5,228C 520.707,230.923 525.041,234.756 528.5,239.5C 527.76,241.894 526.093,243.394 523.5,244C 513.564,246.997 503.564,249.997 493.5,253C 491.522,253.481 490.189,254.647 489.5,256.5C 490.17,261.196 491.004,265.863 492,270.5C 492.667,295.5 492.667,320.5 492,345.5C 491.751,346.624 491.251,347.624 490.5,348.5C 485.992,347.148 481.659,345.481 477.5,343.5C 475.55,337.394 473.884,331.228 472.5,325C 473.889,304.835 475.222,284.669 476.5,264.5 Z"/></g>
<g><path style="opacity:1" fill="#060606" d="M 1014.5,224.5 C 1016.26,225.072 1017.92,225.906 1019.5,227C 1023.5,227.333 1027.5,227.667 1031.5,228C 1033.49,228.574 1034.99,229.741 1036,231.5C 1039.18,255.409 1041.52,279.409 1043,303.5C 1044.48,317.277 1046.48,330.944 1049,344.5C 1049.83,348.541 1049.66,352.541 1048.5,356.5C 1045.83,355.167 1043.17,355.167 1040.5,356.5C 1039.19,355.687 1038.02,354.687 1037,353.5C 1035.87,347.769 1034.53,342.102 1033,336.5C 1030.26,309.807 1027.26,283.14 1024,256.5C 1020.14,269.61 1015.8,282.61 1011,295.5C 1006.25,303.999 1001.25,312.332 996,320.5C 994.95,330.544 993.616,340.544 992,350.5C 989.033,354.108 985.699,354.775 982,352.5C 978.532,344.572 975.365,336.572 972.5,328.5C 974.194,326.446 975.361,324.112 976,321.5C 976.667,296.833 976.667,272.167 976,247.5C 970.196,263.245 964.196,278.912 958,294.5C 953.903,305.224 950.903,316.224 949,327.5C 945.857,334.959 941.357,341.459 935.5,347C 932.558,348.124 929.558,348.458 926.5,348C 922.256,342.458 917.09,337.958 911,334.5C 910.517,333.552 910.351,332.552 910.5,331.5C 912.689,331.793 914.689,332.293 916.5,333C 928.377,314.082 939.877,294.915 951,275.5C 959.132,263.402 967.632,251.569 976.5,240C 975.549,236.943 975.216,233.777 975.5,230.5C 979.518,230.243 983.351,229.243 987,227.5C 988.711,227.439 990.044,228.106 991,229.5C 990.542,250.49 990.542,271.49 991,292.5C 993.333,285.5 995.667,278.5 998,271.5C 1003.08,260.347 1008.41,249.347 1014,238.5C 1015.71,233.892 1015.88,229.225 1014.5,224.5 Z"/></g>
<g><path style="opacity:1" fill="#7be1f2" d="M 298.5,270.5 C 298.5,266.833 298.5,263.167 298.5,259.5C 262.663,259.168 226.996,259.502 191.5,260.5C 190.833,262.833 190.167,265.167 189.5,267.5C 189.5,263.833 189.5,260.167 189.5,256.5C 226.167,256.5 262.833,256.5 299.5,256.5C 299.819,261.363 299.486,266.03 298.5,270.5 Z"/></g>
<g><path style="opacity:1" fill="#656565" d="M 474.5,259.5 C 475.209,258.596 476.209,258.263 477.5,258.5C 477.795,260.735 477.461,262.735 476.5,264.5C 476.923,262.219 476.256,260.552 474.5,259.5 Z"/></g>
<g><path style="opacity:1" fill="#4f7fd0" d="M 191.5,260.5 C 226.996,259.502 262.663,259.168 298.5,259.5C 298.5,263.167 298.5,266.833 298.5,270.5C 297.791,271.404 296.791,271.737 295.5,271.5C 282.167,271.5 268.833,271.5 255.5,271.5C 269.327,270.669 283.327,270.169 297.5,270C 295.194,268.207 294.861,266.04 296.5,263.5C 261.524,261.809 226.524,260.809 191.5,260.5 Z"/></g>
<g><path style="opacity:1" fill="#3e47ca" d="M 191.5,260.5 C 226.524,260.809 261.524,261.809 296.5,263.5C 294.861,266.04 295.194,268.207 297.5,270C 283.327,270.169 269.327,270.669 255.5,271.5C 254.85,271.804 254.183,272.137 253.5,272.5C 252.501,285.817 252.167,299.15 252.5,312.5C 251.833,299.66 251.167,286.66 250.5,273.5C 249.026,318.821 248.36,364.154 248.5,409.5C 245.5,409.5 242.5,409.5 239.5,409.5C 239.5,375.5 239.5,341.5 239.5,307.5C 239.666,297.828 239.5,288.161 239,278.5C 238.667,281.5 238.333,284.5 238,287.5C 237.823,283.644 237.323,279.977 236.5,276.5C 236.771,274.62 236.104,273.287 234.5,272.5C 220.539,270.517 206.206,269.85 191.5,270.5C 191.5,267.167 191.5,263.833 191.5,260.5 Z"/></g>
<g><path style="opacity:1" fill="#4e6ed6" d="M 194.5,261.5 C 218.828,262.131 243.161,262.631 267.5,263C 255.333,263.167 243.167,263.333 231,263.5C 218.481,263.499 206.314,262.832 194.5,261.5 Z"/></g>
<g><path style="opacity:1" fill="#5386d8" d="M 191.5,260.5 C 191.5,263.833 191.5,267.167 191.5,270.5C 206.206,269.85 220.539,270.517 234.5,272.5C 227.922,271.54 221.255,271.207 214.5,271.5C 206.167,271.5 197.833,271.5 189.5,271.5C 189.5,270.167 189.5,268.833 189.5,267.5C 190.167,265.167 190.833,262.833 191.5,260.5 Z"/></g>
<g><path style="opacity:1" fill="#6daee8" d="M 214.5,271.5 C 221.255,271.207 227.922,271.54 234.5,272.5C 236.104,273.287 236.771,274.62 236.5,276.5C 236.5,300.167 236.5,323.833 236.5,347.5C 236.5,369.5 236.5,391.5 236.5,413.5C 235.833,367.665 235.167,321.665 234.5,275.5C 233.5,275.167 232.833,274.5 232.5,273.5C 226.346,272.833 220.346,272.167 214.5,271.5 Z"/></g>
<g><path style="opacity:1" fill="#85dcf4" d="M 255.5,271.5 C 268.833,271.5 282.167,271.5 295.5,271.5C 281.833,271.868 268.166,272.868 254.5,274.5C 253.667,320.83 253.167,367.163 253,413.5C 247.401,414.825 241.901,414.825 236.5,413.5C 241.695,413.821 246.695,413.487 251.5,412.5C 252.498,379.338 252.832,346.004 252.5,312.5C 252.167,299.15 252.501,285.817 253.5,272.5C 254.183,272.137 254.85,271.804 255.5,271.5 Z"/></g>
<g><path style="opacity:1" fill="#070707" d="M 594.5,278.5 C 606.821,279.178 615.154,285.178 619.5,296.5C 628.383,285.641 639.883,279.641 654,278.5C 660.495,279.994 666.162,282.994 671,287.5C 672.504,290.509 674.004,293.509 675.5,296.5C 685.758,283.359 699.091,278.192 715.5,281C 721.604,286.261 720.77,289.428 713,290.5C 696.627,287.519 684.96,293.519 678,308.5C 675.392,315.194 674.225,322.027 674.5,329C 673.82,333.477 673.32,337.977 673,342.5C 671.824,347.587 670.658,352.587 669.5,357.5C 667.184,358.36 664.851,358.86 662.5,359C 660.524,356.118 659.858,353.118 660.5,350C 659.546,348.092 658.879,346.092 658.5,344C 663.889,327.598 665.723,310.765 664,293.5C 663.882,291.427 662.882,290.093 661,289.5C 632.361,287.14 618.194,300.307 618.5,329C 617.134,338.65 615.468,348.15 613.5,357.5C 611.4,357.477 609.567,358.144 608,359.5C 606.739,359.241 605.739,358.574 605,357.5C 604.395,352.953 603.228,348.619 601.5,344.5C 604.409,338.539 606.243,332.205 607,325.5C 607.667,314.167 607.667,302.833 607,291.5C 606.691,290.234 606.191,289.067 605.5,288C 600.833,285.333 596.167,282.667 591.5,280C 592.737,279.768 593.737,279.268 594.5,278.5 Z"/></g>
<g><path style="opacity:1" fill="#080808" d="M 561.5,280.5 C 568.027,280.07 574.36,280.904 580.5,283C 583.016,285.683 585.683,288.183 588.5,290.5C 589.973,293.715 590.473,297.049 590,300.5C 581.149,315.06 568.316,322.226 551.5,322C 550.128,321.598 548.795,321.098 547.5,320.5C 547.727,331.283 553.06,338.783 563.5,343C 566.743,344.018 570.076,344.518 573.5,344.5C 580.492,343.667 587.492,343.5 594.5,344C 596.275,347.394 595.608,350.06 592.5,352C 569.925,357.288 552.091,350.454 539,331.5C 537.068,326.507 535.901,321.34 535.5,316C 536.916,307.422 539.749,299.255 544,291.5C 548.755,285.872 554.588,282.206 561.5,280.5 Z"/></g>
<g><path style="opacity:1" fill="#070707" d="M 751.5,285.5 C 761.776,284.443 766.443,289.11 765.5,299.5C 765.294,306.325 764.128,312.992 762,319.5C 757.667,330.833 753.333,342.167 749,353.5C 741.388,369.434 730.554,382.6 716.5,393C 712.122,396.487 707.955,396.32 704,392.5C 716.579,382.144 727.245,369.144 736,353.5C 746.029,334.396 752.196,314.062 754.5,292.5C 753.129,290.319 752.129,287.986 751.5,285.5 Z"/></g>
<g><path style="opacity:1" fill="#f6f6f6" d="M 560.5,290.5 C 564.182,290.335 567.848,290.501 571.5,291C 573.032,291.7 574.032,292.866 574.5,294.5C 568.833,298.667 563.167,302.833 557.5,307C 554.439,309.035 551.105,310.201 547.5,310.5C 547.929,301.109 552.263,294.442 560.5,290.5 Z"/></g>
<g><path style="opacity:1" fill="#030303" d="M 871.5,291.5 C 879.174,291.334 886.841,291.5 894.5,292C 896,293.115 897.667,293.948 899.5,294.5C 900.23,295.934 901.23,297.1 902.5,298C 901.518,300.738 900.852,303.572 900.5,306.5C 895.448,306.45 890.448,306.95 885.5,308C 873.863,310.519 862.196,312.853 850.5,315C 838.869,318.545 827.202,321.878 815.5,325C 808.129,326.31 801.129,325.31 794.5,322C 789.932,318.133 785.099,314.633 780,311.5C 779.333,310.5 779.333,309.5 780,308.5C 782.991,309.852 786.158,310.519 789.5,310.5C 814.221,305.65 838.887,300.484 863.5,295C 866.666,294.678 869.333,293.511 871.5,291.5 Z"/></g>
<g><path style="opacity:1" fill="#080808" d="M 708.5,293.5 C 711.325,293.081 713.491,294.081 715,296.5C 721.457,306.416 727.124,316.749 732,327.5C 732.238,331.373 733.071,335.04 734.5,338.5C 734.334,341.849 732.667,344.183 729.5,345.5C 724.052,341.934 721.219,336.934 721,330.5C 716.529,318.254 712.362,305.921 708.5,293.5 Z"/></g>
<g><path style="opacity:1" fill="#5471d5" d="M 252.5,312.5 C 252.832,346.004 252.498,379.338 251.5,412.5C 251.333,356.504 250.833,356.504 250,412.5C 246.64,410.93 243.14,409.93 239.5,409.5C 242.5,409.5 245.5,409.5 248.5,409.5C 248.36,364.154 249.026,318.821 250.5,273.5C 251.167,286.66 251.833,299.66 252.5,312.5 Z"/></g>
<g><path style="opacity:1" fill="#566fda" d="M 236.5,276.5 C 237.323,279.977 237.823,283.644 238,287.5C 238.333,284.5 238.667,281.5 239,278.5C 239.5,288.161 239.666,297.828 239.5,307.5C 238.883,307.611 238.383,307.944 238,308.5C 237.5,321.496 237.333,334.496 237.5,347.5C 237.167,347.5 236.833,347.5 236.5,347.5C 236.5,323.833 236.5,300.167 236.5,276.5 Z"/></g>
<g><path style="opacity:1" fill="#5678d4" d="M 239.5,307.5 C 239.5,341.5 239.5,375.5 239.5,409.5C 237.87,389.023 237.204,368.356 237.5,347.5C 237.333,334.496 237.5,321.496 238,308.5C 238.383,307.944 238.883,307.611 239.5,307.5 Z"/></g>
<g><path style="opacity:1" fill="#5563e3" d="M 236.5,347.5 C 236.833,347.5 237.167,347.5 237.5,347.5C 237.204,368.356 237.87,389.023 239.5,409.5C 243.14,409.93 246.64,410.93 250,412.5C 250.833,356.504 251.333,356.504 251.5,412.5C 246.695,413.487 241.695,413.821 236.5,413.5C 236.5,391.5 236.5,369.5 236.5,347.5 Z"/></g>
<g><path style="opacity:1" fill="#aafefb" d="M 425.5,132.5 C 426.5,253.666 426.833,374.999 426.5,496.5C 304.999,496.833 183.666,496.5 62.5,495.5C 183.5,495.5 304.5,495.5 425.5,495.5C 425.5,374.5 425.5,253.5 425.5,132.5 Z"/></g>
</svg>
