<?xml version="1.0" encoding="UTF-8"?>
<!DOCTYPE svg PUBLIC "-//W3C//DTD SVG 1.1//EN" "http://www.w3.org/Graphics/SVG/1.1/DTD/svg11.dtd">
<svg xmlns="http://www.w3.org/2000/svg" version="1.1" width="1087px" height="369px" style="shape-rendering:geometricPrecision; text-rendering:geometricPrecision; image-rendering:optimizeQuality; fill-rule:evenodd; clip-rule:evenodd" xmlns:xlink="http://www.w3.org/1999/xlink">
<g><path style="opacity:1" fill="#fdfdfd" d="M -0.5,-0.5 C 361.833,-0.5 724.167,-0.5 1086.5,-0.5C 1086.5,122.5 1086.5,245.5 1086.5,368.5C 724.167,368.5 361.833,368.5 -0.5,368.5C -0.5,245.5 -0.5,122.5 -0.5,-0.5 Z"/></g>
<g><path style="opacity:1" fill="#8bfcf7" d="M 366.5,30.5 C 366.5,142.167 366.5,253.833 366.5,365.5C 254.833,365.5 143.167,365.5 31.5,365.5C 22.1667,365.5 12.8333,365.5 3.5,365.5C 3.5,244.5 3.5,123.5 3.5,2.5C 124.5,2.5 245.5,2.5 366.5,2.5C 366.5,11.8333 366.5,21.1667 366.5,30.5 Z"/></g>
<g><path style="opacity:1" fill="#0c0c0c" d="M 1047.5,92.5 C 1053.84,92.3338 1060.18,92.5005 1066.5,93C 1074.23,95.9588 1077.06,101.459 1075,109.5C 1071.96,113.492 1069.13,113.326 1066.5,109C 1053.44,105.225 1041.44,107.558 1030.5,116C 1009.15,133.395 1001.31,155.561 1007,182.5C 1009.41,194.844 1016.24,203.677 1027.5,209C 1032.41,210.492 1037.41,210.826 1042.5,210C 1052.95,207.296 1063.45,204.796 1074,202.5C 1082.51,204.028 1083.67,207.861 1077.5,214C 1068.13,218.455 1058.47,222.122 1048.5,225C 1041,226.011 1033.67,225.345 1026.5,223C 1002.48,207.446 991.977,185.279 995,156.5C 998.611,143.61 1003.61,131.277 1010,119.5C 1020.75,107.895 1033.25,98.8946 1047.5,92.5 Z"/></g>
<g><path style="opacity:1" fill="#0a0a0a" d="M 417.5,134.5 C 418.461,132.735 418.795,130.735 418.5,128.5C 417.209,128.263 416.209,128.596 415.5,129.5C 408.241,131.105 400.907,131.605 393.5,131C 387.103,126.273 380.436,121.94 373.5,118C 372.601,116.348 371.601,114.848 370.5,113.5C 376.833,112.833 383.167,112.167 389.5,111.5C 404.845,107.442 420.178,103.275 435.5,99C 438.656,98.0628 441.489,96.5628 444,94.5C 454.57,96.0332 463.07,101.033 469.5,109.5C 469.032,111.134 468.032,112.3 466.5,113C 455.56,116.536 444.56,119.869 433.5,123C 432.667,123.833 431.833,124.667 431,125.5C 431.099,130.19 431.765,134.857 433,139.5C 433.667,165.167 433.667,190.833 433,216.5C 432.311,217.357 431.478,218.023 430.5,218.5C 426.833,217 423.167,215.5 419.5,214C 416.73,207.592 414.73,200.925 413.5,194C 414.457,174.138 415.791,154.304 417.5,134.5 Z"/></g>
<g><path style="opacity:1" fill="#090909" d="M 931.5,99.5 C 931.333,120.169 931.5,140.836 932,161.5C 933.039,160.756 933.539,159.756 933.5,158.5C 939.2,141.241 946.367,124.575 955,108.5C 955.964,104.204 956.797,99.8704 957.5,95.5C 962.316,97.1551 967.316,97.9884 972.5,98C 974.286,98.7845 975.786,99.9512 977,101.5C 980.192,125.753 982.525,150.086 984,174.5C 985.68,187.219 987.68,199.885 990,212.5C 990.879,217.287 990.545,221.953 989,226.5C 986.534,225.212 984.034,225.212 981.5,226.5C 980.186,225.687 979.019,224.687 978,223.5C 977.139,217.722 975.806,212.056 974,206.5C 971.73,180.073 968.73,153.74 965,127.5C 960.469,140.092 956.136,152.759 952,165.5C 947.252,173.999 942.252,182.332 937,190.5C 935.48,200.476 934.146,210.476 933,220.5C 930.293,223.408 927.127,224.075 923.5,222.5C 919.62,214.738 916.286,206.738 913.5,198.5C 914.919,196.664 916.086,194.664 917,192.5C 917.667,167.833 917.667,143.167 917,118.5C 910.685,134.47 904.352,150.47 898,166.5C 894.236,176.555 891.57,186.888 890,197.5C 886.857,204.959 882.357,211.459 876.5,217C 873.558,218.124 870.558,218.458 867.5,218C 863.256,212.458 858.09,207.958 852,204.5C 851.517,203.552 851.351,202.552 851.5,201.5C 853.895,202.363 856.229,202.363 858.5,201.5C 869.504,184.164 880.004,166.497 890,148.5C 899.397,135.28 908.563,121.946 917.5,108.5C 916.731,105.885 916.397,103.219 916.5,100.5C 920.586,99.9173 924.586,98.9173 928.5,97.5C 930.038,97.4534 931.038,98.1201 931.5,99.5 Z"/></g>
<g><path style="opacity:1" fill="#b4b4b4" d="M 389.5,111.5 C 383.167,112.167 376.833,112.833 370.5,113.5C 369.957,113.44 369.624,113.107 369.5,112.5C 376.134,111.503 382.8,111.17 389.5,111.5 Z"/></g>
<g><path style="opacity:1" fill="#7ae0f1" d="M 239.5,137.5 C 239.5,134.833 239.5,132.167 239.5,129.5C 206.996,129.168 174.662,129.502 142.5,130.5C 141.5,130.5 140.5,130.5 139.5,130.5C 136.941,130.198 134.607,130.532 132.5,131.5C 131.833,132.833 131.167,134.167 130.5,135.5C 130.5,132.5 130.5,129.5 130.5,126.5C 167.167,126.5 203.833,126.5 240.5,126.5C 240.815,130.371 240.482,134.038 239.5,137.5 Z"/></g>
<g><path style="opacity:1" fill="#676767" d="M 415.5,129.5 C 416.209,128.596 417.209,128.263 418.5,128.5C 418.795,130.735 418.461,132.735 417.5,134.5C 417.88,132.302 417.213,130.635 415.5,129.5 Z"/></g>
<g><path style="opacity:1" fill="#5282d2" d="M 142.5,130.5 C 174.662,129.502 206.996,129.168 239.5,129.5C 239.5,132.167 239.5,134.833 239.5,137.5C 239.67,138.822 239.337,139.989 238.5,141C 233.845,141.499 229.179,141.666 224.5,141.5C 215.5,141.5 206.5,141.5 197.5,141.5C 210.666,140.512 223.999,139.678 237.5,139C 236.594,137.301 236.261,135.467 236.5,133.5C 222.506,132.954 208.506,132.62 194.5,132.5C 177.185,131.752 159.852,131.086 142.5,130.5 Z"/></g>
<g><path style="opacity:1" fill="#3e47ca" d="M 139.5,130.5 C 142.701,132.26 146.367,133.094 150.5,133C 165.339,133.828 180.006,133.661 194.5,132.5C 208.506,132.62 222.506,132.954 236.5,133.5C 236.261,135.467 236.594,137.301 237.5,139C 223.999,139.678 210.666,140.512 197.5,141.5C 195.876,141.36 194.71,142.027 194,143.5C 193.5,150.158 193.334,156.825 193.5,163.5C 192.672,157.681 192.172,151.681 192,145.5C 191.667,145.833 191.333,146.167 191,146.5C 189.748,190.824 189.248,235.158 189.5,279.5C 186.833,279.5 184.167,279.5 181.5,279.5C 180.596,278.791 180.263,277.791 180.5,276.5C 180.667,234.165 180.5,191.832 180,149.5C 179.667,150.5 179.333,151.5 179,152.5C 178.802,150.618 178.302,148.952 177.5,147.5C 177.714,145.856 177.38,144.356 176.5,143C 172.974,141.663 169.308,141.163 165.5,141.5C 154.66,139.956 143.66,139.623 132.5,140.5C 132.5,137.5 132.5,134.5 132.5,131.5C 134.607,130.532 136.941,130.198 139.5,130.5 Z"/></g>
<g><path style="opacity:1" fill="#475cd0" d="M 139.5,130.5 C 140.5,130.5 141.5,130.5 142.5,130.5C 159.852,131.086 177.185,131.752 194.5,132.5C 180.006,133.661 165.339,133.828 150.5,133C 146.367,133.094 142.701,132.26 139.5,130.5 Z"/></g>
<g><path style="opacity:1" fill="#5587d8" d="M 132.5,131.5 C 132.5,134.5 132.5,137.5 132.5,140.5C 143.66,139.623 154.66,139.956 165.5,141.5C 163.833,141.5 162.167,141.5 160.5,141.5C 150.5,141.5 140.5,141.5 130.5,141.5C 130.5,139.5 130.5,137.5 130.5,135.5C 131.167,134.167 131.833,132.833 132.5,131.5 Z"/></g>
<g><path style="opacity:1" fill="#b2b2b2" d="M 931.5,99.5 C 932.167,119.167 932.833,138.833 933.5,158.5C 933.539,159.756 933.039,160.756 932,161.5C 931.5,140.836 931.333,120.169 931.5,99.5 Z"/></g>
<g><path style="opacity:1" fill="#6fb3e9" d="M 160.5,141.5 C 162.167,141.5 163.833,141.5 165.5,141.5C 169.308,141.163 172.974,141.663 176.5,143C 177.38,144.356 177.714,145.856 177.5,147.5C 177.5,170.833 177.5,194.167 177.5,217.5C 177.5,224.833 177.5,232.167 177.5,239.5C 176.759,208.326 175.925,176.993 175,145.5C 174.5,145 174,144.5 173.5,144C 169.035,143.126 164.702,142.293 160.5,141.5 Z"/></g>
<g><path style="opacity:1" fill="#0d0d0d" d="M 534.5,148.5 C 546.783,148.641 555.449,154.308 560.5,165.5C 569.292,156.02 580.126,150.353 593,148.5C 604.008,149.909 611.842,155.575 616.5,165.5C 627.109,153.241 640.442,148.407 656.5,151C 662.098,154.925 661.764,157.925 655.5,160C 636.079,156.963 623.246,164.797 617,183.5C 615.56,193.449 614.56,203.449 614,213.5C 612.887,217.665 611.721,221.831 610.5,226C 610.095,226.945 609.428,227.612 608.5,228C 606.527,228.495 604.527,228.662 602.5,228.5C 602.008,223.551 601.008,218.718 599.5,214C 605.611,196.243 606.944,178.243 603.5,160C 580.199,155.714 565.699,164.881 560,187.5C 558.984,200.959 557.151,214.292 554.5,227.5C 552.323,227.586 550.323,228.253 548.5,229.5C 547.522,229.023 546.689,228.357 546,227.5C 545.547,222.974 544.38,218.641 542.5,214.5C 544.95,208.702 546.783,202.702 548,196.5C 548.667,184.5 548.667,172.5 548,160.5C 547.626,159.584 547.126,158.75 546.5,158C 542.5,155.667 538.5,153.333 534.5,151C 533.402,150.23 533.402,149.397 534.5,148.5 Z"/></g>
<g><path style="opacity:1" fill="#0f0f0f" d="M 500.5,150.5 C 512.563,148.656 522.396,152.323 530,161.5C 531.318,164.406 531.652,167.406 531,170.5C 521.55,186.261 507.716,192.928 489.5,190.5C 489.438,202.644 495.438,210.477 507.5,214C 516.838,213.483 526.172,213.649 535.5,214.5C 537.105,217.58 536.438,220.08 533.5,222C 510.982,227.322 493.149,220.489 480,201.5C 474.43,184.86 477.597,170.026 489.5,157C 492.933,154.289 496.6,152.123 500.5,150.5 Z"/></g>
<g><path style="opacity:1" fill="#0e0e0e" d="M 692.5,156.5 C 702.179,154.367 706.846,158.367 706.5,168.5C 706.25,174.249 705.417,179.916 704,185.5C 699.333,198.167 694.667,210.833 690,223.5C 681.696,240.8 669.529,254.633 653.5,265C 650.743,265.782 648.243,265.282 646,263.5C 645.333,262.833 645.333,262.167 646,261.5C 671.202,239.45 686.869,211.783 693,178.5C 693.648,173.297 694.481,168.13 695.5,163C 694.588,160.683 693.588,158.516 692.5,156.5 Z"/></g>
<g><path style="opacity:1" fill="#ededed" d="M 500.5,160.5 C 504.514,160.334 508.514,160.501 512.5,161C 513.5,162 514.5,163 515.5,164C 510.013,168.576 504.347,172.909 498.5,177C 495.395,178.868 492.062,180.035 488.5,180.5C 488.956,171.569 492.956,164.902 500.5,160.5 Z"/></g>
<g><path style="opacity:1" fill="#070707" d="M 811.5,161.5 C 819.507,161.334 827.507,161.5 835.5,162C 838.756,163.459 841.423,165.626 843.5,168.5C 842.215,171.021 841.548,173.687 841.5,176.5C 812.503,179.533 784.17,185.7 756.5,195C 749.976,196.011 743.643,195.345 737.5,193C 732.442,188.943 727.108,185.276 721.5,182C 720.26,178.386 721.26,177.719 724.5,180C 727.5,180.667 730.5,180.667 733.5,180C 758.584,174.987 783.584,169.653 808.5,164C 809.942,163.623 810.942,162.79 811.5,161.5 Z"/></g>
<g><path style="opacity:1" fill="#5778d8" d="M 193.5,163.5 C 193.665,203.173 193.332,242.839 192.5,282.5C 190.5,282.833 188.5,283.167 186.5,283.5C 186.918,282.778 187.584,282.278 188.5,282C 185.996,281.302 183.663,280.469 181.5,279.5C 184.167,279.5 186.833,279.5 189.5,279.5C 189.248,235.158 189.748,190.824 191,146.5C 191.333,146.167 191.667,145.833 192,145.5C 192.172,151.681 192.672,157.681 193.5,163.5 Z"/></g>
<g><path style="opacity:1" fill="#0f0f0f" d="M 649.5,164.5 C 652.102,163.031 654.269,163.698 656,166.5C 665.091,179.512 671.591,193.679 675.5,209C 674.815,211.86 673.148,214.027 670.5,215.5C 667.81,213.644 665.644,211.311 664,208.5C 659.841,193.524 655.008,178.857 649.5,164.5 Z"/></g>
<g><path style="opacity:1" fill="#b5fefb" d="M 366.5,30.5 C 367.5,142.332 367.833,254.332 367.5,366.5C 255.332,366.833 143.332,366.5 31.5,365.5C 143.167,365.5 254.833,365.5 366.5,365.5C 366.5,253.833 366.5,142.167 366.5,30.5 Z"/></g>
<g><path style="opacity:1" fill="#5879d7" d="M 177.5,147.5 C 178.302,148.952 178.802,150.618 179,152.5C 179.333,151.5 179.667,150.5 180,149.5C 180.5,191.832 180.667,234.165 180.5,276.5C 179.082,256.853 178.082,237.186 177.5,217.5C 177.5,194.167 177.5,170.833 177.5,147.5 Z"/></g>
<g><path style="opacity:1" fill="#82d8f2" d="M 197.5,141.5 C 206.5,141.5 215.5,141.5 224.5,141.5C 214.975,142.546 205.308,143.546 195.5,144.5C 194.646,190.828 194.313,237.161 194.5,283.5C 189.015,284.636 183.681,284.636 178.5,283.5C 181.167,283.5 183.833,283.5 186.5,283.5C 188.5,283.167 190.5,282.833 192.5,282.5C 193.332,242.839 193.665,203.173 193.5,163.5C 193.334,156.825 193.5,150.158 194,143.5C 194.71,142.027 195.876,141.36 197.5,141.5 Z"/></g>
<g><path style="opacity:1" fill="#5564e3" d="M 177.5,217.5 C 178.082,237.186 179.082,256.853 180.5,276.5C 180.263,277.791 180.596,278.791 181.5,279.5C 183.663,280.469 185.996,281.302 188.5,282C 187.584,282.278 186.918,282.778 186.5,283.5C 183.833,283.5 181.167,283.5 178.5,283.5C 177.504,269.01 177.171,254.343 177.5,239.5C 177.5,232.167 177.5,224.833 177.5,217.5 Z"/></g>
</svg>
